<?xml version="1.0" encoding="UTF-8" standalone="no"?>
<!DOCTYPE svg PUBLIC "-//W3C//DTD SVG 1.1//EN"
 "http://www.w3.org/Graphics/SVG/1.1/DTD/svg11.dtd">
<!-- Generated by graphviz version 2.38.0 (20140413.2041)
 -->
<!-- Title: %3 Pages: 1 -->
<svg width="1017pt" height="108pt"
 viewBox="0.00 0.00 1017.00 108.00" xmlns="http://www.w3.org/2000/svg" xmlns:xlink="http://www.w3.org/1999/xlink">
<g id="graph0" class="graph" transform="scale(1 1) rotate(0) translate(4 104)">
<title>%3</title>
<!-- mpileaks@2.3\n%gcc@4.7.3\n arch=linux&#45;debian7&#45;x86_64 -->
<g id="node1" class="node"><title>mpileaks@2.3\n%gcc@4.7.3\n arch=linux&#45;debian7&#45;x86_64</title>
<polygon fill="none" stroke="black" points="173,-75 0,-75 0,-34 173,-34 173,-75"/>
<text text-anchor="middle" x="86.5" y="-63" font-family="monaco" font-size="10.00">mpileaks@2.3</text>
<text text-anchor="middle" x="86.5" y="-52" font-family="monaco" font-size="10.00">%gcc@4.7.3</text>
<text text-anchor="middle" x="86.5" y="-41" font-family="monaco" font-size="10.00"> arch=linux&#45;debian7&#45;x86_64</text>
</g>
<!-- mpich@3.0.4\n%gcc@4.7.3\n arch=linux&#45;debian7&#45;x86_64 -->
<g id="node2" class="node"><title>mpich@3.0.4\n%gcc@4.7.3\n arch=linux&#45;debian7&#45;x86_64</title>
<polygon fill="none" stroke="black" points="591,-100 418,-100 418,-59 591,-59 591,-100"/>
<text text-anchor="middle" x="504.5" y="-88" font-family="monaco" font-size="10.00">mpich@3.0.4</text>
<text text-anchor="middle" x="504.5" y="-77" font-family="monaco" font-size="10.00">%gcc@4.7.3</text>
<text text-anchor="middle" x="504.5" y="-66" font-family="monaco" font-size="10.00"> arch=linux&#45;debian7&#45;x86_64</text>
</g>
<!-- mpileaks@2.3\n%gcc@4.7.3\n arch=linux&#45;debian7&#45;x86_64&#45;&gt;mpich@3.0.4\n%gcc@4.7.3\n arch=linux&#45;debian7&#45;x86_64 -->
<g id="edge1" class="edge"><title>mpileaks@2.3\n%gcc@4.7.3\n arch=linux&#45;debian7&#45;x86_64&#45;&gt;mpich@3.0.4\n%gcc@4.7.3\n arch=linux&#45;debian7&#45;x86_64</title>
<path fill="none" stroke="black" d="M173.191,-59.6497C241.428,-63.7505 336.902,-69.4881 407.665,-73.7407"/>
<polygon fill="black" stroke="black" points="407.728,-77.2507 417.92,-74.357 408.148,-70.2633 407.728,-77.2507"/>
</g>
<!-- callpath@1.0\n%gcc@4.7.3+debug\n arch=linux&#45;debian7&#45;x86_64 -->
<g id="node3" class="node"><title>callpath@1.0\n%gcc@4.7.3+debug\n arch=linux&#45;debian7&#45;x86_64</title>
<polygon fill="none" stroke="black" points="382,-51 209,-51 209,-10 382,-10 382,-51"/>
<text text-anchor="middle" x="295.5" y="-39" font-family="monaco" font-size="10.00">callpath@1.0</text>
<text text-anchor="middle" x="295.5" y="-28" font-family="monaco" font-size="10.00">%gcc@4.7.3+debug</text>
<text text-anchor="middle" x="295.5" y="-17" font-family="monaco" font-size="10.00"> arch=linux&#45;debian7&#45;x86_64</text>
</g>
<!-- mpileaks@2.3\n%gcc@4.7.3\n arch=linux&#45;debian7&#45;x86_64&#45;&gt;callpath@1.0\n%gcc@4.7.3+debug\n arch=linux&#45;debian7&#45;x86_64 -->
<g id="edge2" class="edge"><title>mpileaks@2.3\n%gcc@4.7.3\n arch=linux&#45;debian7&#45;x86_64&#45;&gt;callpath@1.0\n%gcc@4.7.3+debug\n arch=linux&#45;debian7&#45;x86_64</title>
<path fill="none" stroke="black" d="M173.189,-44.565C181.663,-43.5826 190.301,-42.581 198.867,-41.5879"/>
<polygon fill="black" stroke="black" points="199.345,-45.056 208.875,-40.4275 198.539,-38.1026 199.345,-45.056"/>
</g>
<!-- callpath@1.0\n%gcc@4.7.3+debug\n arch=linux&#45;debian7&#45;x86_64&#45;&gt;mpich@3.0.4\n%gcc@4.7.3\n arch=linux&#45;debian7&#45;x86_64 -->
<g id="edge3" class="edge"><title>callpath@1.0\n%gcc@4.7.3+debug\n arch=linux&#45;debian7&#45;x86_64&#45;&gt;mpich@3.0.4\n%gcc@4.7.3\n arch=linux&#45;debian7&#45;x86_64</title>
<path fill="none" stroke="black" d="M382.189,-50.7839C390.663,-52.7898 399.301,-54.8346 407.867,-56.8622"/>
<polygon fill="black" stroke="black" points="407.338,-60.3336 417.875,-59.2313 408.95,-53.5219 407.338,-60.3336"/>
</g>
<!-- dyninst@8.1.2\n%gcc@4.7.3\n arch=linux&#45;debian7&#45;x86_64 -->
<g id="node4" class="node"><title>dyninst@8.1.2\n%gcc@4.7.3\n arch=linux&#45;debian7&#45;x86_64</title>
<polygon fill="none" stroke="black" points="591,-41 418,-41 418,-0 591,-0 591,-41"/>
<text text-anchor="middle" x="504.5" y="-29" font-family="monaco" font-size="10.00">dyninst@8.1.2</text>
<text text-anchor="middle" x="504.5" y="-18" font-family="monaco" font-size="10.00">%gcc@4.7.3</text>
<text text-anchor="middle" x="504.5" y="-7" font-family="monaco" font-size="10.00"> arch=linux&#45;debian7&#45;x86_64</text>
</g>
<!-- callpath@1.0\n%gcc@4.7.3+debug\n arch=linux&#45;debian7&#45;x86_64&#45;&gt;dyninst@8.1.2\n%gcc@4.7.3\n arch=linux&#45;debian7&#45;x86_64 -->
<g id="edge4" class="edge"><title>callpath@1.0\n%gcc@4.7.3+debug\n arch=linux&#45;debian7&#45;x86_64&#45;&gt;dyninst@8.1.2\n%gcc@4.7.3\n arch=linux&#45;debian7&#45;x86_64</title>
<path fill="none" stroke="black" d="M382.189,-26.3604C390.663,-25.9511 399.301,-25.5338 407.867,-25.12"/>
<polygon fill="black" stroke="black" points="408.056,-28.615 417.875,-24.6365 407.718,-21.6232 408.056,-28.615"/>
</g>
<!-- libdwarf@20130729\n%gcc@4.7.3\n arch=linux&#45;debian7&#45;x86_64 -->
<g id="node5" class="node"><title>libdwarf@20130729\n%gcc@4.7.3\n arch=linux&#45;debian7&#45;x86_64</title>
<polygon fill="none" stroke="black" points="800,-66 627,-66 627,-25 800,-25 800,-66"/>
<text text-anchor="middle" x="713.5" y="-54" font-family="monaco" font-size="10.00">libdwarf@20130729</text>
<text text-anchor="middle" x="713.5" y="-43" font-family="monaco" font-size="10.00">%gcc@4.7.3</text>
<text text-anchor="middle" x="713.5" y="-32" font-family="monaco" font-size="10.00"> arch=linux&#45;debian7&#45;x86_64</text>
</g>
<!-- dyninst@8.1.2\n%gcc@4.7.3\n arch=linux&#45;debian7&#45;x86_64&#45;&gt;libdwarf@20130729\n%gcc@4.7.3\n arch=linux&#45;debian7&#45;x86_64 -->
<g id="edge5" class="edge"><title>dyninst@8.1.2\n%gcc@4.7.3\n arch=linux&#45;debian7&#45;x86_64&#45;&gt;libdwarf@20130729\n%gcc@4.7.3\n arch=linux&#45;debian7&#45;x86_64</title>
<path fill="none" stroke="black" d="M591.189,-30.8489C599.663,-31.8723 608.301,-32.9156 616.867,-33.9501"/>
<polygon fill="black" stroke="black" points="616.528,-37.4345 626.875,-35.1588 617.367,-30.485 616.528,-37.4345"/>
</g>
<!-- libelf@0.8.11\n%gcc@4.7.3\n arch=linux&#45;debian7&#45;x86_64 -->
<g id="node6" class="node"><title>libelf@0.8.11\n%gcc@4.7.3\n arch=linux&#45;debian7&#45;x86_64</title>
<polygon fill="none" stroke="black" points="1009,-41 836,-41 836,-0 1009,-0 1009,-41"/>
<text text-anchor="middle" x="922.5" y="-29" font-family="monaco" font-size="10.00">libelf@0.8.11</text>
<text text-anchor="middle" x="922.5" y="-18" font-family="monaco" font-size="10.00">%gcc@4.7.3</text>
<text text-anchor="middle" x="922.5" y="-7" font-family="monaco" font-size="10.00"> arch=linux&#45;debian7&#45;x86_64</text>
</g>
<!-- dyninst@8.1.2\n%gcc@4.7.3\n arch=linux&#45;debian7&#45;x86_64&#45;&gt;libelf@0.8.11\n%gcc@4.7.3\n arch=linux&#45;debian7&#45;x86_64 -->
<g id="edge7" class="edge"><title>dyninst@8.1.2\n%gcc@4.7.3\n arch=linux&#45;debian7&#45;x86_64&#45;&gt;libelf@0.8.11\n%gcc@4.7.3\n arch=linux&#45;debian7&#45;x86_64</title>
<path fill="none" stroke="black" d="M591.116,-16.5348C603.162,-16.1057 615.391,-15.7388 627,-15.5 703.873,-13.9189 723.127,-13.9189 800,-15.5 808.344,-15.6716 817.008,-15.9095 825.695,-16.189"/>
<polygon fill="black" stroke="black" points="825.771,-19.6935 835.884,-16.5348 826.009,-12.6975 825.771,-19.6935"/>
</g>
<!-- libdwarf@20130729\n%gcc@4.7.3\n arch=linux&#45;debian7&#45;x86_64&#45;&gt;libelf@0.8.11\n%gcc@4.7.3\n arch=linux&#45;debian7&#45;x86_64 -->
<g id="edge6" class="edge"><title>libdwarf@20130729\n%gcc@4.7.3\n arch=linux&#45;debian7&#45;x86_64&#45;&gt;libelf@0.8.11\n%gcc@4.7.3\n arch=linux&#45;debian7&#45;x86_64</title>
<path fill="none" stroke="black" d="M800.189,-35.1511C808.663,-34.1277 817.301,-33.0844 825.867,-32.0499"/>
<polygon fill="black" stroke="black" points="826.367,-35.515 835.875,-30.8412 825.528,-28.5655 826.367,-35.515"/>
</g>
</g>
</svg>
